# xmcd
#
# Track frame offsets: 
#        150
#        13990
#        29933
#        52285
#        71736
#        89282
#        105516
#        120676
#        134199
#        151242
#        166683
#
# Disc length: 2459 seconds
#
# Revision: 0
# Processed by: cddbd v1.5.1PL2 Copyright (c) Steve Scherf et al.
# Submitted via: ExactAudioCopy v0.95a5
#
DISCID=a009990b
DTITLE=Emerson Drive - Countryfied
DYEAR=2006
DGENRE=Country
TTITLE0=A Good Man
TTITLE1=Testify
TTITLE2=Moments
TTITLE3=Sweet Natural Girl
TTITLE4=You Still Own Me
TTITLE5=Lucky Man
TTITLE6=Everyday Woman
TTITLE7=Countrified Soul
TTITLE8=Painted Too Much Of This Town
TTITLE9=A Boy Becomes A Man
TTITLE10=Devil Went Down To Georgia
EXTD=
EXTT0=
EXTT1=
EXTT2=
EXTT3=
EXTT4=
EXTT5=
EXTT6=
EXTT7=
EXTT8=
EXTT9=
EXTT10=
PLAYORDER=
